PathFileType	4	(X/Y/Z)	C:/Users/opensim2020/Desktop/walking_exp_matlab/subject06_walking23_straight_02.trc																																																																																																																																					
DataRate	CameraRate	NumFrames	NumMarkers	Units	OrigDataRate	OrigDataStartFrame	OrigNumFrames																																																																																																																																	
100	100	5	45	mm	100	1334	114																																																																																																																																	
Frame#	Time	LFHD			RFHD			LBHD			RBHD			C7			T10			CLAV			STRN			RBAK			LSHO			LUPA			LELB			LFRM			LWRA			LWRB			LFIN			RSHO			RUPA			RELB			RFRM			RWRA			RWRB			RFIN			LASI			RASI			LPSI			RPSI			LTHI			LKNE			LTIB			LANK			LHEE			LTOE			RTHI			RKNE			RTIB			RANK			RHEE			RTOE			*39			*40			*41			*42			*43			*44		
		X1	Y1	Z1	X2	Y2	Z2	X3	Y3	Z3	X4	Y4	Z4	X5	Y5	Z5	X6	Y6	Z6	X7	Y7	Z7	X8	Y8	Z8	X9	Y9	Z9	X10	Y10	Z10	X11	Y11	Z11	X12	Y12	Z12	X13	Y13	Z13	X14	Y14	Z14	X15	Y15	Z15	X16	Y16	Z16	X17	Y17	Z17	X18	Y18	Z18	X19	Y19	Z19	X20	Y20	Z20	X21	Y21	Z21	X22	Y22	Z22	X23	Y23	Z23	X24	Y24	Z24	X25	Y25	Z25	X26	Y26	Z26	X27	Y27	Z27	X28	Y28	Z28	X29	Y29	Z29	X30	Y30	Z30	X31	Y31	Z31	X32	Y32	Z32	X33	Y33	Z33	X34	Y34	Z34	X35	Y35	Z35	X36	Y36	Z36	X37	Y37	Z37	X38	Y38	Z38	X39	Y39	Z39	X40	Y40	Z40	X41	Y41	Z41	X42	Y42	Z42	X43	Y43	Z43	X44	Y44	Z44	X45	Y45	Z45
																																																																																																																																								
58	0.57	6.93883	1650.31812	871.08356	22.82724	1649.34668	1002.62604	-128.22632	1606.35815	891.78552	-110.47556	1609.71191	1019.71741	-129.94014	1447.44849	946.21863	-165.50899	1118.3147	960.99402	-18.64824	1372.22009	952.1106	23.29297	1202.51172	950.19409	-207.07881	1279.27795	1023.02582	-68.74435	1400.71875	788.50763	-50.84134	1201.47656	712.15479	-39.33886	1089.23279	696.1604	36.97696	959.22876	682.69293	132.19937	879.6358	737.22284	84.99168	850.05853	694.08386	155.43141	794.48309	701.37793	-74.13557	1404.57874	1110.67529	-136.23911	1214.21936	1198.99841	-141.12894	1091.55115	1212.24817	-133.60284	971.41223	1229.16968	-81.04992	829.98297	1194.77185	-134.65556	833.43457	1237.48718	-102.7847	754.49945	1235.39343	14.43748	965.638	852.71838	14.47066	972.53809	1073.34155	-144.81647	985.57318	886.10242	-136.0515	983.64532	1052.38074	-55.4436	643.72711	805.53363	-59.23204	479.82382	833.86346	-143.40173	234.1424	846.68921	-184.47874	69.34849	897.30188	-227.73595	60.18515	942.41223	-45.77085	34.01119	899.11639	55.62945	646.95593	1138.70837	109.07153	532.88806	1116.52197	37.53263	278.39532	1106.96948	-8.1234	99.1524	1059.33545	-46.32407	79.86562	1009.66229	132.55679	43.53697	1073.45081	-82.17404	1700.29919	938.9693	NaN	NaN	NaN	NaN	NaN	NaN	NaN	NaN	NaN	NaN	NaN	NaN	NaN	NaN	NaN
59	0.58	20.47599	1648.84375	871.28845	36.26523	1647.95313	1002.72345	-114.72762	1604.70117	891.89069	-96.99809	1608.09521	1019.85974	-116.09402	1445.95752	946.29901	-151.99971	1116.98645	961.53271	-4.99864	1370.60437	952.17297	36.79095	1200.70215	949.86371	-193.45351	1277.90344	1023.04449	-55.1222	1399.32056	788.63519	-35.57372	1200.4978	711.93774	-22.58032	1088.5188	695.75989	58.55722	961.3515	682.67914	157.16669	886.52826	737.98114	110.63138	854.31281	695.44214	183.86131	802.09821	703.06006	-60.41773	1402.92212	1110.84924	-124.64497	1213.15222	1198.59106	-130.96873	1090.46167	1211.73474	-125.71726	970.14972	1228.70642	-75.82927	827.51086	1194.76721	-129.64455	832.18048	1237.16357	-99.58876	752.42181	1234.96826	27.14189	963.74347	852.10913	28.3568	970.82941	1072.85107	-131.9861	984.04865	886.74945	-122.28435	982.11932	1052.98914	-46.41383	642.66205	805.64014	-53.26733	478.56973	834.0141	-140.785	234.08992	847.13177	-183.90643	69.73522	897.92285	-227.12805	60.89778	943.29449	-45.46441	33.97564	899.10052	70.01015	645.84955	1138.95093	123.9379	532.07629	1116.63416	65.6699	273.30252	1107.36975	32.23003	91.24034	1059.71936	-4.25953	69.83416	1009.86688	176.49089	43.81547	1074.703	-68.88998	1698.71753	939.04938	NaN	NaN	NaN	NaN	NaN	NaN	NaN	NaN	NaN	NaN	NaN	NaN	NaN	NaN	NaN
60	0.59	33.95413	1647.30981	871.51013	49.76127	1646.32813	1002.88611	-101.31718	1602.94324	891.95117	-83.55009	1606.20581	1020.021	-102.46725	1444.34973	946.60944	-138.43759	1115.38708	962.14276	8.8446	1368.84753	952.24939	50.46091	1198.73315	949.57983	-179.80139	1276.2666	1023.13983	-41.5294	1397.75415	788.78949	-20.35497	1199.2334	711.81207	-5.69061	1087.64636	695.68787	79.66288	963.32892	683.23419	181.31389	893.31659	738.96497	135.95602	858.8457	697.39801	211.48767	809.86316	704.71954	-46.51634	1401.07849	1111.03479	-112.86351	1211.89514	1198.30542	-120.63212	1089.27209	1211.375	-117.58248	968.81152	1228.37415	-70.12086	825.25421	1194.97681	-124.38837	830.98761	1237.02905	-95.84882	750.52673	1234.80371	40.03053	961.64075	851.62598	42.40992	968.79358	1072.55298	-119.02011	982.37469	887.37115	-108.44162	980.31366	1053.64624	-37.58966	641.55487	806.02173	-47.19931	477.33572	834.17596	-138.25217	233.99355	847.5957	-183.32286	70.21453	898.67444	-226.97588	62.04643	944.4209	-45.08881	33.71923	899.10431	83.61915	644.0094	1139.27576	137.99855	530.39136	1116.19421	93.48103	268.55753	1107.69617	72.83071	84.58363	1060.59778	38.3746	60.87673	1010.5824	219.68141	45.19883	1076.03015	-55.54601	1696.91785	939.2616	NaN	NaN	NaN	NaN	NaN	NaN	NaN	NaN	NaN	NaN	NaN	NaN	NaN	NaN	NaN
61	0.6	47.44003	1645.5116	871.70935	63.21919	1644.5166	1003.20355	-87.76878	1600.87659	892.23175	-69.9877	1604.0885	1020.27094	-88.63967	1442.35193	946.83209	-124.74403	1113.47876	962.8125	22.76362	1366.86816	952.37573	64.15644	1196.54358	949.37036	-166.06999	1274.42102	1023.30145	-27.9812	1395.9458	788.98761	-5.26098	1197.77869	711.82733	11.01671	1086.41809	695.57355	100.42787	965.41333	683.88843	204.88457	900.05322	739.97443	160.91815	863.33282	698.5993	238.54729	817.71008	706.37292	-32.49866	1399.01111	1111.24805	-100.93571	1210.58032	1198.26807	-110.20281	1087.93494	1211.0929	-109.27754	967.42133	1228.14941	-64.27979	823.09192	1195.26843	-118.53168	829.6759	1236.87683	-91.87914	748.65759	1234.80432	53.33374	959.47601	851.40546	56.33587	966.41321	1072.3894	-105.89555	980.56519	888.0368	-94.52545	978.11816	1054.55994	-28.57197	640.34937	806.32062	-40.83598	476.07379	834.27411	-135.57877	233.97467	848.08942	-182.73462	70.72461	899.4314	-226.29053	62.93514	945.36035	-44.82696	33.63919	899.07208	96.43708	641.33807	1139.46887	151.05736	528.01074	1116.57532	120.94823	264.22354	1108.08374	113.49255	78.97589	1061.55896	80.48542	53.61047	1011.19672	262.42456	47.38477	1077.38513	-42.12186	1694.93066	939.50281	NaN	NaN	NaN	NaN	NaN	NaN	NaN	NaN	NaN	NaN	NaN	NaN	NaN	NaN	NaN
62	0.61	60.88237	1643.46265	872.0542	76.78131	1642.51172	1003.4635	-74.16599	1598.5686	892.53149	-56.3972	1601.80896	1020.49231	-74.70383	1440.22131	947.05536	-110.99086	1111.35291	963.64978	36.66993	1364.69958	952.53424	77.98277	1194.23535	949.23126	-152.17336	1272.36121	1023.51447	-14.36522	1393.99097	789.22729	9.83154	1196.10913	711.95154	27.54224	1085.04358	695.5719	120.91788	967.26105	684.47229	228.03351	906.83514	740.90027	185.3138	867.82251	700.1369	264.89572	825.64752	707.96259	-18.45179	1396.80066	1111.52197	-89.10284	1209.1084	1197.97302	-99.4857	1086.53809	1210.93567	-100.63297	965.98541	1228.0979	-58.36224	820.80695	1195.45593	-112.46668	828.40796	1236.9447	-87.52042	746.80554	1235.06116	66.3463	956.88617	851.18323	70.39264	963.79407	1072.41663	-92.79427	978.74683	888.81226	-81.46492	976.27057	1055.59277	-19.15454	639.04547	806.40015	-34.2534	474.71729	834.26923	-133.04672	233.95399	848.47742	-182.16508	71.30338	900.11572	-225.57977	63.93016	946.20593	-44.59364	33.52686	899.02997	108.77869	637.84045	1139.99646	163.4216	524.83026	1116.56128	147.94112	260.33673	1108.42358	153.60692	74.80682	1062.82874	122.51339	47.99965	1012.24573	304.31683	50.28658	1078.82251	-28.68874	1692.71814	939.88129	NaN	NaN	NaN	NaN	NaN	NaN	NaN	NaN	NaN	NaN	NaN	NaN	NaN	NaN	NaN
